<?xml version="1.0" encoding="UTF-8"?>
<svg width="1920px" height="1080px" viewBox="0 0 1920 1080" version="1.1" xmlns="http://www.w3.org/2000/svg" xmlns:xlink="http://www.w3.org/1999/xlink">
    <!-- Generator: Sketch 43.1 (39012) - http://www.bohemiancoding.com/sketch -->
    <title>OH3E9V1</title>
    <desc>Created with Sketch.</desc>
    <defs></defs>
    <g id="Page-1" stroke="none" stroke-width="1" fill="none" fill-rule="evenodd">
        <g id="OH3E9V1">
            <g id="Group-4">
                <polygon id="Fill-1" fill="#CBEBF4" points="0.00157506153 573.746149 1919.84249 573.746149 1919.84249 0.0885357438 0.00157506153 0.0885357438"></polygon>
                <polygon id="Fill-3" fill="#57AADC" points="0 1079.1976 1919.84249 1079.1976 1919.84249 543.253553 0 543.253553"></polygon>
            </g>
            <path d="M548.148187,697.023362 C548.148187,705.058315 535.700476,711.573178 520.343626,711.573178 L115.634717,711.573178 C100.274717,711.573178 87.8270057,705.058315 87.8270057,697.023362 C87.8270057,688.988408 100.274717,682.476171 115.634717,682.476171 L520.343626,682.476171 C535.700476,682.476171 548.148187,688.988408 548.148187,697.023362" id="Fill-5" fill="#77B8D8"></path>
            <path d="M1897.11436,672.632336 C1897.11436,682.082365 1887.93175,689.744516 1876.5913,689.744516 L1444.07783,689.744516 C1432.73582,689.744516 1423.54691,682.082365 1423.54691,672.632336 C1423.54691,663.182307 1432.73582,655.522782 1444.07783,655.522782 L1876.5913,655.522782 C1887.93175,655.522782 1894.92502,663.182307 1894.92502,672.632336 L1897.11436,672.632336" id="Fill-6" fill="#77B8D8"></path>
            <path d="M1017.97329,1066.22075 C1606.10599,1061.62454 1740.04922,817.898984 1740.04922,817.898984 C1740.04922,817.898984 822.820016,597.166785 211.453585,836.282685 C211.453585,836.282685 429.842166,1070.80574 1017.97329,1066.22075 Z" id="Fill-7" fill="#3F97C4"></path>
            <polyline id="Fill-8" fill="#1B4C08" points="1287.91206 736.839765 1019.24279 736.839765 1287.91206 343.226816 1556.58763 736.839765 1287.91206 736.839765"></polyline>
            <polyline id="Fill-9" fill="#1F6600" points="1287.91206 684.489832 1523.37588 684.489832 1287.91206 343.226816 1287.91206 684.489832"></polyline>
            <polyline id="Fill-10" fill="#1B4C08" points="1000.20975 705.429805 684.583167 705.429805 1000.20975 234.86718 1315.83947 705.429805 1000.20975 705.429805"></polyline>
            <polyline id="Fill-11" fill="#1F6600" points="1000.20975 696.367019 1315.83947 696.367019 1000.20975 234.86718 1000.20975 696.367019"></polyline>
            <polyline id="Fill-12" fill="#1B4C08" points="717.44525 721.725494 401.820246 721.725494 717.44525 360.386252 1033.0734 721.725494 717.44525 721.725494"></polyline>
            <polyline id="Fill-13" fill="#1F6600" points="717.446825 721.725494 1033.0734 721.725494 717.446825 360.387565 717.446825 721.725494"></polyline>
            <path d="M235.068482,795.221492 C235.068482,795.221492 179.846825,874.233398 246.997998,890.690547 C314.146021,907.149009 1018.38596,934.8165 1688.73372,890.690547 C1718.10861,888.758273 1775.62986,857.76706 1716.3918,795.221492 C1703.00377,781.096986 1480.78779,777.836273 1212.35951,779.176526 C1194.46523,779.264476 1176.36148,779.374742 1158.10336,779.504698 C1139.84368,781.54855 1121.42806,778.592381 1102.90376,779.943135 C1084.38418,780.571912 1065.74963,777.572423 1047.05365,780.480024 C1028.35925,780.191233 1009.60814,780.884331 990.836555,781.107488 C615.485217,785.565371 235.068482,795.221492 235.068482,795.221492" id="Fill-14" fill="#BC7A3F"></path>
            <path d="M1739.6082,858.565173 C1739.6082,858.565173 1760.76128,789.331468 1692.02559,772.873006 C1623.28991,756.415857 990.181329,710.42589 286.683249,763.096118 C256.654701,765.343437 214.91557,782.446428 211.453585,855.30446 C210.870812,867.541323 622.32571,877.736958 1018.38281,875.303237 C1385.61943,873.048042 1739.6082,858.565173 1739.6082,858.565173" id="Fill-15" fill="#F4D967"></path>
            <path d="M1739.6082,809.676794 C1739.6082,809.676794 1749.02707,766.518291 1680.29139,750.061142 C1611.5557,733.60268 1039.895,727.867554 337.518359,740.282941 C307.376407,740.813267 242.157834,735.584837 227.095521,796.641818 C225.383429,803.576741 234.755045,821.761385 291.808499,825.505167 C301.317145,826.128693 334.962034,804.471993 345.768532,814.222627 C356.576604,809.608535 368.0084,796.486921 380.016669,815.753219 C392.026514,789.047928 404.611255,804.146447 417.726792,817.073782 C430.84233,842.174971 444.488663,795.499781 458.613815,818.188253 C472.740541,802.673612 487.347662,829.158373 502.3895,819.109759 C517.432912,836.639372 532.909467,819.632208 548.768761,819.850114 C576.524495,820.230793 605.466251,833.55981 635.330993,833.777716 C650.264151,833.885356 665.430418,820.937018 680.790418,821.007903 C696.153568,819.453682 711.718326,811.396413 727.448466,821.1628 C743.18018,811.559186 759.077276,828.215864 775.111403,821.217933 C791.143954,814.752952 807.313536,815.779473 823.585496,821.175927 C839.857457,814.553424 856.233372,812.268037 872.680164,821.047284 C889.126957,818.013665 905.646202,816.225787 922.201674,820.832003 C938.760295,820.750617 955.355144,820.653478 971.959442,820.545837 C982.351698,820.480203 992.745529,820.410631 1003.13936,820.333182 C1013.52532,815.12313 1023.91285,816.60384 1034.28148,820.094273 C1044.65326,820.531398 1055.01086,827.787928 1065.35272,819.834361 C1075.68827,824.570534 1086.0065,815.82673 1096.2948,819.550821 C1106.58468,818.378592 1116.84305,821.551355 1127.06835,819.246278 C1137.29365,826.37154 1147.48115,834.822615 1157.62297,831.962271 C1167.76794,831.854631 1177.86724,818.706764 1187.91455,818.593873 C1205.49539,818.391719 1222.92187,818.180377 1240.13887,817.967721 C1257.36532,821.635367 1274.38543,824.174103 1291.15984,817.311378 C1307.93582,809.219979 1324.46766,847.350893 1340.71442,816.635345 C1356.96118,835.221671 1372.9197,838.145024 1388.55534,815.936996 C1404.1894,802.395323 1419.49427,802.988657 1434.42743,815.236021 C1449.36217,820.167784 1463.93148,806.770507 1478.08341,814.535047 C1492.23692,811.405602 1505.98248,818.904979 1519.26497,813.848512 C1525.91173,809.834317 1532.44036,810.044346 1538.85244,811.07218 C1545.26451,812.100013 1551.55373,813.939087 1557.72482,813.177729 C1563.89749,815.558942 1569.93785,818.375967 1575.84906,812.858746 C1581.77129,806.589356 1587.55176,802.904645 1593.20623,812.546327 C1611.28794,808.742162 1627.99934,821.515913 1643.15144,821.388582 C1658.31928,820.839879 1671.92781,803.585929 1683.80377,810.824082 C1695.69549,809.537649 1705.85463,801.137769 1714.12371,810.21237 C1722.39278,810.044346 1728.75603,809.910452 1733.0717,809.817252 C1737.37162,809.726676 1739.6082,809.676794 1739.6082,809.676794" id="Fill-16" fill="#95C11F"></path>
            <path d="M611.361706,630.236504 C427.64968,630.236504 390.327022,701.306657 278.718162,748.115741 L944.006825,748.115741 C855.546645,713.141838 795.076883,630.236504 611.361706,630.236504" id="Fill-17" fill="#8AAF14"></path>
            <path d="M1229.76551,590.227136 C984.375652,590.227136 934.52653,685.156677 785.453257,747.678616 L1674.06989,750.935391 C1555.9198,704.222134 1475.1475,590.227136 1229.76551,590.227136" id="Fill-18" fill="#8AAF14"></path>
            <path d="M1229.76236,747.678616 L1674.06989,750.935391 C1555.9198,704.222134 1475.1475,590.227136 1229.76551,590.227136 L1229.76236,590.227136 L1229.76236,747.678616" id="Fill-19" fill="#95C11F"></path>
            <path d="M611.361706,630.236504 L611.361706,748.115741 L944.006825,748.115741 C855.546645,713.141838 795.076883,630.236504 611.361706,630.236504" id="Fill-20" fill="#95C11F"></path>
            <path d="M278.812666,747.237554 C278.812666,747.237554 278.91977,771.326662 319.246071,773.408582 C383.330599,776.713927 984.967875,787.732616 1640.48958,775.6454 C1668.47842,775.130827 1676.08597,767.956996 1679.31485,751.235997 C1679.85037,748.430786 1308.18783,749.354917 939.13516,749.908871 C596.942018,750.427382 278.812666,747.237554 278.812666,747.237554" id="Fill-21" fill="#A6D31A"></path>
            <path d="M413.272518,100.786646 C412.151075,100.786646 411.035931,100.815525 409.927088,100.861469 C409.939688,100.444035 409.964889,100.029226 409.964889,99.6104789 C409.964889,66.7539388 378.006891,40.1221575 338.590976,40.1221575 C321.551961,40.1221575 305.913175,45.1064277 293.640295,53.4117944 C280.797244,33.8567054 255.881345,20.5959476 227.245152,20.5959476 C185.466645,20.5959476 151.596522,48.8239555 151.596522,83.6429617 C151.596522,89.6143721 152.617162,95.3810034 154.475734,100.853593 C153.404692,100.808962 152.3242,100.786646 151.237408,100.786646 C116.426973,100.786646 88.2034454,124.30736 88.2034454,153.32298 C88.2034454,182.335975 116.426973,205.856689 151.237408,205.856689 L413.272518,205.856689 C448.079803,205.856689 476.303331,182.335975 476.303331,153.32298 C476.303331,124.30736 448.079803,100.786646 413.272518,100.786646" id="Fill-22" fill="#FFFFFF"></path>
            <path d="M1790.86149,221.897137 C1793.61785,216.638515 1795.16141,210.837754 1795.16141,204.733762 C1795.16141,180.991204 1772.05526,161.743283 1743.5624,161.743283 C1739.41998,161.743283 1735.38783,162.164656 1731.51317,162.936515 C1732.1432,160.110301 1732.48971,157.200076 1732.48971,154.222903 C1732.48971,127.965237 1706.94221,106.680028 1675.44098,106.680028 C1651.6103,106.680028 1631.19751,118.865695 1622.66225,136.168215 C1614.00413,127.500546 1600.96105,121.9807 1586.37126,121.9807 C1560.30241,121.9807 1539.16509,139.594326 1539.16509,161.319286 C1539.16509,162.314302 1539.22179,163.296191 1539.30999,164.27283 C1533.8587,162.638535 1527.98372,161.743283 1521.85831,161.743283 C1493.37175,161.743283 1470.27347,180.991204 1470.27347,204.733762 C1470.27347,210.692046 1471.73198,216.368102 1474.36233,221.526959 C1449.96778,222.321134 1430.48112,239.044759 1430.48112,259.565985 C1430.48112,280.596534 1450.93644,297.643079 1476.16893,297.643079 L1784.19898,297.643079 C1809.43147,297.643079 1829.89152,280.596534 1829.89152,259.565985 C1829.89152,240.425705 1812.92811,224.590769 1790.86149,221.897137" id="Fill-23" fill="#FFFFFF"></path>
            <path d="M1533.53345,609.026117 C1532.1789,603.340873 1530.86057,597.582118 1528.69329,592.01764 L1522.79941,575.070859 C1520.34389,569.553638 1517.90569,564.046919 1515.47065,558.57958 C1513.22776,553.036105 1510.20364,547.815552 1507.40791,542.572682 C1509.10897,534.499661 1512.8529,526.813882 1522.92541,525.281977 C1523.50504,525.19534 1523.97126,525.020753 1524.33667,524.787094 C1526.25194,527.258883 1528.14517,529.760863 1530.15022,532.237902 C1534.10363,537.363943 1538.29486,542.483419 1541.74425,548.019018 C1545.38737,553.495546 1549.07301,559.012766 1552.74448,564.561492 L1562.45158,581.917831 C1565.90884,587.692338 1568.49509,593.734634 1571.14907,599.779555 C1573.6613,605.861231 1576.84135,611.761756 1578.77867,617.953698 C1582.85808,630.299513 1587.221,642.496995 1589.23708,654.773238 C1590.30812,660.875917 1592.2297,666.857829 1592.51321,672.847617 C1593.01723,678.847906 1593.55275,684.727428 1594.04102,690.433676 C1594.21427,693.311085 1594.35603,704.500423 1594.26153,707.209808 C1594.00952,712.66402 1593.78901,717.942332 1593.5685,722.996174 C1593.58425,728.106463 1592.30845,732.8597 1591.63117,737.45804 C1590.79639,742.044567 1588.4338,755.428717 1587.83527,757.720667 L1516.24558,757.720667 C1516.94963,756.392229 1517.70409,754.969277 1518.54044,753.386177 C1520.73765,748.993928 1524.16656,743.81013 1526.11649,737.366152 C1527.30409,734.177637 1528.58776,730.790906 1529.90136,727.213836 C1531.13936,723.610512 1533.02628,719.882482 1533.67836,715.792152 C1534.59505,711.718886 1535.56843,707.474971 1536.58435,703.094536 C1537.10097,700.873471 1538.67288,691.69123 1538.96269,689.313955 C1539.43206,684.500334 1539.91718,679.564633 1540.4275,674.517354 C1541.19298,669.449072 1540.38025,664.245583 1540.46845,658.92264 C1540.75511,648.242623 1538.85559,637.254125 1537.31203,625.951896 C1536.6631,620.279778 1534.762,614.732365 1533.53345,609.026117" id="Fill-24" fill="#A05822"></path>
            <path d="M1352.32263,479.915536 L1341.46573,493.591103 C1303.83278,488.542511 1280.63212,486.946284 1280.63212,486.946284 C1280.63212,486.946284 1353.69923,436.368478 1430.96702,449.740814 C1509.37989,463.315304 1526.23934,538.353708 1526.23934,538.353708 C1512.4166,530.670555 1493.23235,523.923347 1471.64614,518.059577 L1472.36279,500.694049 L1465.42622,516.406905 C1450.17175,512.459657 1436.16473,509.336776 1419.82189,506.217833 L1418.2358,486.556416 L1410.19826,504.448332 C1389.89572,500.728178 1369.73336,497.634177 1351.56975,495.132196 L1352.32263,479.915536" id="Fill-25" fill="#8AAF14"></path>
            <path d="M1662.99721,446.862093 L1677.88154,457.591991 C1712.48564,444.272163 1734.316,437.524955 1734.316,437.524955 C1734.316,437.524955 1647.59311,405.234182 1577.50287,435.48504 C1506.39357,466.174335 1514.43741,542.220882 1514.43741,542.220882 C1525.26596,531.720704 1541.54894,520.908106 1560.44653,510.40924 L1554.13053,493.845764 L1565.90097,507.418941 C1579.31419,500.193915 1591.78868,494.033478 1606.5155,487.363718 L1601.68007,468.069854 L1615.20984,483.500482 C1633.55931,475.350013 1651.97178,467.840134 1668.65168,461.347587 L1662.99721,446.862093" id="Fill-26" fill="#95C11F"></path>
            <path d="M1693.82116,579.961928 L1692.49811,596.321939 C1726.07842,611.344322 1745.68794,621.81037 1745.68794,621.81037 C1745.68794,621.81037 1724.44036,544.657228 1653.27908,516.206063 C1581.07826,487.342715 1513.0293,538.45741 1513.0293,538.45741 C1529.6147,539.343474 1549.77076,543.677964 1571.20105,549.93554 L1583.28335,535.770341 L1577.34537,551.770676 C1592.33995,556.350638 1605.75947,560.948979 1621.00607,566.732675 L1636.59918,551.907195 L1629.95242,570.196854 C1648.80591,577.507205 1667.07662,585.242866 1683.33126,592.44295 L1693.82116,579.961928" id="Fill-27" fill="#8AAF14"></path>
            <path d="M1535.31327,559.729493 L1548.52489,559.729493 C1550.44961,559.729493 1552.0105,558.427308 1552.0105,556.828456 C1552.0105,555.224353 1550.44961,553.922169 1548.52489,553.922169 L1535.31327,553.922169 C1533.38855,553.922169 1531.83239,555.224353 1531.83239,556.828456 C1531.83239,558.427308 1533.38855,559.729493 1535.31327,559.729493" id="Fill-28" fill="#683C11"></path>
            <path d="M1541.7285,573.271166 L1555.07715,573.271166 C1557.0003,573.271166 1558.55331,571.971606 1558.55331,570.367504 C1558.55331,568.767339 1557.0003,567.463841 1555.07715,567.463841 L1541.7285,567.463841 C1539.80377,567.463841 1538.24131,568.767339 1538.24131,570.367504 C1538.24131,571.971606 1539.80377,573.271166 1541.7285,573.271166" id="Fill-29" fill="#683C11"></path>
            <path d="M1546.91833,585.841451 L1563.19816,585.841451 C1565.12289,585.841451 1566.68535,584.547142 1566.68535,582.943039 C1566.68535,581.342874 1565.12289,580.043315 1563.19816,580.043315 L1546.91833,580.043315 C1544.99675,580.043315 1543.43587,581.342874 1543.43587,582.943039 C1543.43587,584.547142 1544.99675,585.841451 1546.91833,585.841451" id="Fill-30" fill="#683C11"></path>
            <path d="M1550.72053,599.388374 L1569.00226,599.388374 C1570.92699,599.388374 1572.48,598.086189 1572.48,596.484712 C1572.48,594.881922 1570.92699,593.584988 1569.00226,593.584988 L1550.72053,593.584988 C1548.8021,593.584988 1547.23964,594.881922 1547.23964,596.484712 C1547.23964,598.086189 1548.8021,599.388374 1550.72053,599.388374" id="Fill-31" fill="#683C11"></path>
            <path d="M1555.49139,613.893559 L1575.39229,613.893559 C1577.31386,613.893559 1578.87317,612.596624 1578.87317,610.991209 C1578.87317,609.394982 1577.31386,608.092797 1575.39229,608.092797 L1555.49139,608.092797 C1553.56824,608.092797 1552.0105,609.394982 1552.0105,610.991209 C1552.0105,612.596624 1553.56824,613.893559 1555.49139,613.893559" id="Fill-32" fill="#683C11"></path>
            <path d="M1557.31058,626.646307 L1579.45595,626.646307 C1581.36177,626.646307 1582.93683,625.345435 1582.93683,623.746583 C1582.93683,622.143792 1581.36177,620.840295 1579.45595,620.840295 L1557.31058,620.840295 C1555.39688,620.840295 1553.83442,622.143792 1553.83442,623.746583 C1553.83442,625.345435 1555.39688,626.646307 1557.31058,626.646307" id="Fill-33" fill="#683C11"></path>
            <path d="M1564.27865,642.221331 L1585.00016,642.221331 C1586.92174,642.221331 1588.4968,640.917833 1588.4968,639.317668 C1588.4968,637.713566 1586.92174,636.415319 1585.00016,636.415319 L1564.27865,636.415319 C1562.3555,636.415319 1560.79462,637.713566 1560.79462,639.317668 C1560.79462,640.917833 1562.3555,642.221331 1564.27865,642.221331" id="Fill-34" fill="#683C11"></path>
            <path d="M1569.00226,659.358451 L1589.6466,659.358451 C1591.56817,659.358451 1593.12748,658.056266 1593.12748,656.457414 C1593.12748,654.854624 1591.56817,653.551127 1589.6466,653.551127 L1569.00226,653.551127 C1567.08226,653.551127 1565.52295,654.854624 1565.52295,656.457414 C1565.52295,658.056266 1567.08226,659.358451 1569.00226,659.358451" id="Fill-35" fill="#683C11"></path>
            <path d="M1569.00226,675.748654 L1592.51321,675.748654 C1594.43478,675.748654 1595.99409,674.447781 1595.99409,672.847617 C1595.99409,671.240889 1594.43478,669.947892 1592.51321,669.947892 L1569.00226,669.947892 C1567.08226,669.947892 1565.52295,671.240889 1565.52295,672.847617 C1565.52295,674.447781 1567.08226,675.748654 1569.00226,675.748654" id="Fill-36" fill="#683C11"></path>
            <path d="M1569.00226,691.76474 L1595.11206,691.76474 C1597.03363,691.76474 1598.59295,690.463868 1598.59295,688.86239 C1598.59295,687.258288 1597.03363,685.958728 1595.11206,685.958728 L1569.00226,685.958728 C1567.08226,685.958728 1565.52295,687.258288 1565.52295,688.86239 C1565.52295,690.463868 1567.08226,691.76474 1569.00226,691.76474" id="Fill-37" fill="#683C11"></path>
            <path d="M1564.27865,706.755619 L1595.11206,706.755619 C1597.03363,706.755619 1598.59295,705.456059 1598.59295,703.855894 C1598.59295,702.251792 1597.03363,700.952232 1595.11206,700.952232 L1564.27865,700.952232 C1562.3555,700.952232 1560.79462,702.251792 1560.79462,703.855894 C1560.79462,705.456059 1562.3555,706.755619 1564.27865,706.755619" id="Fill-38" fill="#683C11"></path>
            <path d="M1560.87967,724.165778 L1595.11206,724.165778 C1597.03363,724.165778 1598.59295,722.870157 1598.59295,721.268679 C1598.59295,719.664576 1597.03363,718.362392 1595.11206,718.362392 L1560.87967,718.362392 C1558.95495,718.362392 1557.39406,719.664576 1557.39406,721.268679 C1557.39406,722.870157 1558.95495,724.165778 1560.87967,724.165778" id="Fill-39" fill="#683C11"></path>
            <path d="M1553.91317,741.57725 L1591.97769,741.57725 C1593.89926,741.57725 1595.45857,740.280316 1595.45857,738.676213 C1595.45857,737.074736 1593.89926,735.773864 1591.97769,735.773864 L1553.91317,735.773864 C1551.99317,735.773864 1550.42914,737.074736 1550.42914,738.676213 C1550.42914,740.280316 1551.99317,741.57725 1553.91317,741.57725" id="Fill-40" fill="#683C11"></path>
            <path d="M1366.76594,603.061271 L1371.12413,619.053729 C1340.7412,638.241266 1323.33204,651.110843 1323.33204,651.110843 C1323.33204,651.110843 1329.94888,572.144881 1394.94537,534.834396 C1460.90264,496.980459 1537.63019,538.675316 1537.63019,538.675316 C1521.41651,541.694495 1502.31258,548.587411 1482.30615,557.542558 L1467.73998,545.103541 L1476.57135,560.144302 C1462.60686,566.609282 1450.219,572.887861 1436.22615,580.578891 L1418.07829,567.945597 L1428.04371,585.150978 C1410.78418,594.809724 1394.17043,604.816332 1379.44676,614.030078 L1366.76594,603.061271" id="Fill-41" fill="#A6D31A"></path>
            <path d="M421.738474,577.131776 C423.441116,569.992075 425.09493,562.770987 427.816637,555.788809 L435.2021,534.536416 C438.284495,527.613308 441.346415,520.708578 444.397309,513.849791 C447.211944,506.893866 451.004692,500.351437 454.510779,493.770941 C452.378146,483.646191 447.676587,474.005822 435.047744,472.087987 C434.320066,471.976409 433.737293,471.755877 433.271075,471.465774 C430.872256,474.565026 428.503363,477.703659 425.983265,480.810788 C421.023396,487.239013 415.764266,493.6633 411.445447,500.599535 C406.871468,507.476699 402.250238,514.395869 397.641608,521.353107 L385.464807,543.125323 C381.133388,550.363476 377.888761,557.946865 374.562231,565.527629 C371.405808,573.153024 367.409877,580.559201 364.989007,588.323741 C359.876358,603.805564 354.399869,619.111487 351.875045,634.509298 C350.523642,642.166198 348.118523,649.664262 347.76571,657.174141 C347.12466,664.705023 346.464709,672.078382 345.850435,679.241712 C345.633076,682.846349 345.440919,696.882904 345.570074,700.282762 C345.886661,707.120545 346.159147,713.737797 346.430057,720.087261 C346.411157,726.491858 348.009844,732.452767 348.871403,738.222024 C349.917244,743.972903 352.889385,760.762162 353.618638,763.636945 L443.420771,763.636945 C442.538737,761.967208 441.598425,760.18458 440.547859,758.199798 C437.788351,752.687828 433.491583,746.186092 431.045513,738.105195 C429.550779,734.104127 427.947367,729.853648 426.296702,725.373449 C424.742116,720.85387 422.379524,716.174143 421.560492,711.044165 C420.410697,705.933877 419.190025,700.608308 417.91265,695.118654 C417.26845,692.331821 415.296473,680.81431 414.931058,677.830574 C414.34356,671.789591 413.730861,665.6029 413.094537,659.277065 C412.136899,652.914474 413.155964,646.391735 413.036259,639.710162 C412.683445,626.31551 415.064938,612.536241 416.997539,598.356603 C417.814996,591.243155 420.196489,584.284605 421.738474,577.131776" id="Fill-42" fill="#A05822"></path>
            <path d="M636.449286,388.759968 L652.392059,404.463635 C698.380705,393.55915 726.997998,388.731089 726.997998,388.731089 C726.997998,388.731089 627.057194,334.681227 533.161477,360.819439 C437.886005,387.342267 430.131977,482.879582 430.131977,482.879582 C445.992847,471.616733 468.692633,460.856642 494.547268,450.905167 L490.592289,429.362671 L502.01306,448.082891 C520.315275,441.298928 537.21411,435.689819 557.012633,429.805046 L555.519475,405.117353 L568.688564,426.418315 C593.327252,419.291741 617.891911,412.967218 640.073503,407.623271 L636.449286,388.759968" id="Fill-43" fill="#A6D31A"></path>
            <path d="M259.344906,373.72052 L240.680427,387.179494 C197.268581,370.471621 169.897162,362.010045 169.897162,362.010045 C169.897162,362.010045 278.672486,321.508419 366.57982,359.450307 C455.778704,397.943522 445.693585,493.331191 445.693585,493.331191 C432.108679,480.158383 411.686432,466.599645 387.989631,453.429463 L395.89959,432.656201 L381.139688,449.681743 C364.322756,440.616331 348.666645,432.892484 330.202199,424.522796 L336.26461,400.326048 L319.291747,419.67242 C296.278523,409.457094 273.183396,400.032006 252.257129,391.892038 L259.344906,373.72052" id="Fill-44" fill="#8AAF14"></path>
            <path d="M517.080098,597.800024 L504.049614,607.798756 C514.813585,634.954299 519.831731,651.908956 519.831731,651.908956 C519.831731,651.908956 563.320755,590.555307 538.006366,535.237391 C512.318687,479.104296 429.889418,477.347921 429.889418,477.347921 C440.061165,486.488157 449.998228,499.726599 459.343068,514.878938 L477.753962,511.86501 L461.990747,519.254121 C468.382346,529.98402 473.71708,539.917118 479.377851,551.573773 L500.571879,549.93554 L482.638228,558.445686 C489.511797,572.948245 495.693913,587.437677 500.962494,600.535662 L517.080098,597.800024" id="Fill-45" fill="#95C11F"></path>
            <path d="M246.144315,532.190646 L247.620148,550.421234 C210.187235,567.171112 188.344282,578.830393 188.344282,578.830393 C188.344282,578.830393 212.020607,492.845497 291.32968,461.13887 C371.799573,428.966239 447.632486,485.935516 447.632486,485.935516 C429.145989,486.921343 406.682461,491.754654 382.801378,498.726332 L369.340902,482.939965 L375.94356,500.770184 C359.232158,505.875222 344.287974,511.003887 327.288335,517.447865 L309.924856,500.926394 L317.324495,521.30585 C296.3179,529.452382 275.947629,538.076731 257.828121,546.098558 L246.144315,532.190646" id="Fill-46" fill="#95C11F"></path>
            <path d="M419.508187,515.289808 L402.93224,515.289808 C400.519245,515.289808 398.564594,513.660765 398.564594,511.651042 C398.564594,509.641319 400.519245,508.00965 402.93224,508.00965 L419.508187,508.00965 C421.922756,508.00965 423.877408,509.641319 423.877408,511.651042 C423.877408,513.660765 421.922756,515.289808 419.508187,515.289808" id="Fill-47" fill="#683C11"></path>
            <path d="M411.461198,532.27597 L394.721444,532.27597 C392.306874,532.27597 390.353798,530.645614 390.353798,528.634578 C390.353798,526.626168 392.306874,524.997124 394.721444,524.997124 L411.461198,524.997124 C413.875767,524.997124 415.830418,526.626168 415.830418,528.634578 C415.830418,530.645614 413.875767,532.27597 411.461198,532.27597" id="Fill-48" fill="#683C11"></path>
            <path d="M404.949893,548.04921 L384.530796,548.04921 C382.116226,548.04921 380.16315,546.418853 380.16315,544.407818 C380.16315,542.399408 382.116226,540.769051 384.530796,540.769051 L404.949893,540.769051 C407.366038,540.769051 409.317539,542.399408 409.317539,544.407818 C409.317539,546.418853 407.366038,548.04921 404.949893,548.04921" id="Fill-49" fill="#683C11"></path>
            <path d="M400.182182,565.036684 L377.252436,565.036684 C374.836292,565.036684 372.884791,563.403702 372.884791,561.395292 C372.884791,559.385569 374.836292,557.755213 377.252436,557.755213 L400.182182,557.755213 C402.592026,557.755213 404.548253,559.385569 404.548253,561.395292 C404.548253,563.403702 402.592026,565.036684 400.182182,565.036684" id="Fill-50" fill="#683C11"></path>
            <path d="M394.196948,583.234455 L369.246399,583.234455 C366.830254,583.234455 364.878753,581.604099 364.878753,579.594376 C364.878753,577.583341 366.830254,575.952984 369.246399,575.952984 L394.196948,575.952984 C396.611518,575.952984 398.564594,577.583341 398.564594,579.594376 C398.564594,581.604099 396.611518,583.234455 394.196948,583.234455" id="Fill-51" fill="#683C11"></path>
            <path d="M391.911534,599.228226 L364.147925,599.228226 C361.736505,599.228226 359.781854,597.595244 359.781854,595.586834 C359.781854,593.579737 361.736505,591.94938 364.147925,591.94938 L391.911534,591.94938 C394.324528,591.94938 396.27918,593.579737 396.27918,595.586834 C396.27918,597.595244 394.324528,599.228226 391.911534,599.228226" id="Fill-52" fill="#683C11"></path>
            <path d="M383.176243,618.759687 L357.173552,618.759687 C354.762133,618.759687 352.807482,617.131956 352.807482,615.118295 C352.807482,613.111198 354.762133,611.480841 357.173552,611.480841 L383.176243,611.480841 C385.590812,611.480841 387.543888,613.111198 387.543888,615.118295 C387.543888,617.131956 385.590812,618.759687 383.176243,618.759687" id="Fill-53" fill="#683C11"></path>
            <path d="M377.252436,640.258865 L351.35055,640.258865 C348.937555,640.258865 346.982904,638.627195 346.982904,636.618785 C346.982904,634.611688 348.937555,632.981331 351.35055,632.981331 L377.252436,632.981331 C379.663856,632.981331 381.618507,634.611688 381.618507,636.618785 C381.618507,638.627195 379.663856,640.258865 377.252436,640.258865" id="Fill-54" fill="#683C11"></path>
            <path d="M377.252436,660.815533 L347.76571,660.815533 C345.35114,660.815533 343.398064,659.187802 343.398064,657.174141 C343.398064,655.167044 345.35114,653.536687 347.76571,653.536687 L377.252436,653.536687 C379.663856,653.536687 381.618507,655.167044 381.618507,657.174141 C381.618507,659.187802 379.663856,660.815533 377.252436,660.815533" id="Fill-55" fill="#683C11"></path>
            <path d="M377.252436,680.906198 L344.495882,680.906198 C342.081313,680.906198 340.128236,679.273216 340.128236,677.264806 C340.128236,675.252458 342.081313,673.627352 344.495882,673.627352 L377.252436,673.627352 C379.663856,673.627352 381.618507,675.252458 381.618507,677.264806 C381.618507,679.273216 379.663856,680.906198 377.252436,680.906198" id="Fill-56" fill="#683C11"></path>
            <path d="M383.176243,699.710431 L344.495882,699.710431 C342.081313,699.710431 340.128236,698.077449 340.128236,696.070351 C340.128236,694.059316 342.081313,692.430272 344.495882,692.430272 L383.176243,692.430272 C385.590812,692.430272 387.543888,694.059316 387.543888,696.070351 C387.543888,698.077449 385.590812,699.710431 383.176243,699.710431" id="Fill-57" fill="#683C11"></path>
            <path d="M387.441509,721.549594 L344.495882,721.549594 C342.081313,721.549594 340.128236,719.919238 340.128236,717.91214 C340.128236,715.898479 342.081313,714.268123 344.495882,714.268123 L387.441509,714.268123 C389.854504,714.268123 391.81073,715.898479 391.81073,717.91214 C391.81073,719.919238 389.854504,721.549594 387.441509,721.549594" id="Fill-58" fill="#683C11"></path>
            <path d="M653.617457,545.632554 L650.10192,565.99232 C690.404594,587.428488 713.731255,602.06888 713.731255,602.06888 C713.731255,602.06888 695.928335,503.886502 610.166235,462.690465 C523.13621,420.882717 432.226809,479.442969 432.226809,479.442969 C452.86484,481.855686 477.582281,488.871995 503.673175,498.388971 L520.386153,481.624653 L511.159442,501.167928 C529.398655,508.085786 545.643839,514.89469 564.065759,523.337889 L585.233011,506.022243 L574.85493,528.369416 C597.598819,539.003488 619.574077,550.121942 639.087514,560.402901 L653.617457,545.632554" id="Fill-59" fill="#A6D31A"></path>
            <path d="M396.176801,743.388757 L348.438261,743.388757 C346.025267,743.388757 344.07219,741.758401 344.07219,739.749991 C344.07219,737.741581 346.025267,736.109911 348.438261,736.109911 L396.176801,736.109911 C398.59137,736.109911 400.546021,737.741581 400.546021,739.749991 C400.546021,741.758401 398.59137,743.388757 396.176801,743.388757" id="Fill-60" fill="#683C11"></path>
            <path d="M1510.79272,964.294185 C1510.79272,972.329138 1498.34658,978.844001 1482.98973,978.844001 L1078.28082,978.844001 C1062.92082,978.844001 1050.47311,972.329138 1050.47311,964.294185 C1050.47311,956.259232 1062.92082,949.746994 1078.28082,949.746994 L1482.98973,949.746994 C1498.34658,949.746994 1510.79272,956.259232 1510.79272,964.294185" id="Fill-69" fill="#77B8D8"></path>
            <path d="M500.806563,939.245503 C500.806563,948.69422 491.616079,956.35637 480.278786,956.35637 L47.768466,956.35637 C36.4264479,956.35637 27.2359639,948.69422 27.2359639,939.245503 C27.2359639,929.795474 36.4264479,922.137262 47.768466,922.137262 L480.278786,922.137262 C491.616079,922.137262 498.615652,929.795474 498.615652,939.245503 L500.806563,939.245503" id="Fill-75" fill="#77B8D8"></path>
            <path d="M1909.84085,1040.60196 C1909.84085,1048.63691 1897.39787,1055.15177 1882.04102,1055.15177 L1477.32896,1055.15177 C1461.96896,1055.15177 1449.52282,1048.63691 1449.52282,1040.60196 C1449.52282,1032.567 1461.96896,1026.05477 1477.32896,1026.05477 L1882.04102,1026.05477 C1897.39787,1026.05477 1909.84085,1032.567 1909.84085,1040.60196" id="Fill-76" fill="#77B8D8"></path>
            <path d="M815.658212,225.933647 C814.894307,225.933647 814.131977,225.953338 813.375947,225.986155 C813.385398,225.701302 813.401148,225.417762 813.401148,225.131596 C813.401148,202.706975 791.589696,184.530206 764.687646,184.530206 C753.058966,184.530206 742.384774,187.932689 734.010172,193.600869 C725.24338,180.254787 708.239016,171.203814 688.694077,171.203814 C660.180738,171.203814 637.06356,190.468799 637.06356,214.233674 C637.06356,218.309565 637.759737,222.244999 639.027662,225.979591 C638.296833,225.9494 637.559705,225.933647 636.817851,225.933647 C613.059623,225.933647 593.798195,241.987802 593.798195,261.790989 C593.798195,281.592863 613.059623,297.643079 636.817851,297.643079 L815.658212,297.643079 C839.414865,297.643079 858.677867,281.592863 858.677867,261.790989 C858.677867,241.987802 839.414865,225.933647 815.658212,225.933647" id="Fill-77" fill="#FFFFFF"></path>
        </g>
    </g>
</svg>